<?xml version="1.0"?>
<svg xmlns="http://www.w3.org/2000/svg" xmlns:xlink="http://www.w3.org/1999/xlink" version="1.1" id="Capa_1" x="0px" y="0px" viewBox="0 0 509.798 509.798" style="enable-background:new 0 0 509.798 509.798;" xml:space="preserve" width="512px" height="512px" class=""><g><g>
	<path d="M258.135,214.653c5.792-6.546,14.12-10.301,22.848-10.301c4.142,0,7.5-3.358,7.5-7.5s-3.358-7.5-7.5-7.5   c-10.416,0-20.447,3.582-28.465,10.011c-8.018-6.429-18.049-10.011-28.465-10.011c-25.086,0-45.496,20.409-45.496,45.496   c0,6.156,1.063,11.767,3.16,16.676c8.595,20.124,39.229,43.416,57.531,57.332c3.544,2.695,6.605,5.022,8.499,6.583   c1.385,1.142,3.078,1.713,4.771,1.713c1.662,0,3.325-0.55,4.697-1.653c1.906-1.531,4.931-3.75,8.434-6.318   c18.766-13.763,50.175-36.797,58.295-59.331c1.682-4.666,2.535-9.714,2.535-15.002c0-5.597-1.006-11.065-2.991-16.253   c-1.479-3.869-5.816-5.805-9.685-4.325c-3.869,1.48-5.805,5.816-4.325,9.685c1.328,3.47,2.001,7.135,2.001,10.893   c0,3.55-0.554,6.886-1.646,9.917c-6.568,18.229-36.808,40.406-53.054,52.32c-1.526,1.119-2.923,2.144-4.188,3.082   c-1.284-0.985-2.707-2.067-4.264-3.251c-14.859-11.298-45.779-34.807-52.815-51.283c-1.297-3.036-1.955-6.665-1.955-10.785   c0-16.815,13.68-30.496,30.496-30.496c8.729,0,17.057,3.755,22.848,10.301c1.423,1.609,3.469,2.531,5.617,2.531   S256.711,216.262,258.135,214.653z" data-original="#000000" class="active-path" data-old_color="#000000" fill="#499306"/>
	<path d="M507.601,40.855L469.668,2.923c-1.894-1.895-4.658-2.635-7.244-1.941c-2.588,0.694-4.61,2.715-5.304,5.304l-13.362,49.869   L427.1,72.757C379.898,27.868,318.305,3.226,252.923,3.226c-67.558,0-131.073,26.309-178.844,74.08S0,188.591,0,256.149   s26.309,131.073,74.08,178.844s111.286,74.08,178.844,74.08c67.559,0,131.073-26.309,178.844-74.08   c47.771-47.771,74.08-111.286,74.08-178.844c0-64.722-24.16-125.723-68.191-172.735l16.701-16.646l49.882-13.366   c2.588-0.694,4.61-2.715,5.304-5.304c0.172-0.642,0.256-1.294,0.255-1.942C509.798,44.194,509.026,42.28,507.601,40.855z    M490.847,256.149c0,63.552-24.748,123.299-69.686,168.237c-44.938,44.938-104.686,69.686-168.237,69.686   s-123.299-24.749-168.237-69.686C39.749,379.448,15,319.701,15,256.149S39.749,132.85,84.686,87.912   c44.938-44.937,104.686-69.686,168.237-69.686c61.366,0,119.182,23.081,163.546,65.127l-26.523,26.436   c-35.885-33.617-84.088-54.237-137.022-54.237c-40.197,0-78.981,11.848-112.161,34.263c-3.432,2.319-4.335,6.981-2.016,10.414   c2.32,3.432,6.981,4.334,10.414,2.016c30.69-20.734,66.57-31.693,103.763-31.693c48.79,0,93.235,18.934,126.397,49.828   l-34.309,34.196c-24.361-22.106-56.678-35.594-92.088-35.594c-75.634,0-137.167,61.533-137.167,137.167   s61.533,137.167,137.167,137.167c75.634,0,137.167-61.533,137.167-137.167c0-34.839-13.063-66.68-34.54-90.9l34.332-34.219   c30.192,33.021,48.638,76.955,48.638,125.119c0,102.338-83.258,185.597-185.597,185.597c-102.338,0-185.596-83.258-185.596-185.597   c0-51.29,20.46-99.024,57.613-134.411c2.999-2.856,3.115-7.604,0.258-10.604c-2.857-2.999-7.604-3.114-10.604-0.258   c-19.466,18.541-34.779,40.376-45.515,64.9c-11.116,25.392-16.752,52.433-16.752,80.373c0,110.609,89.987,200.597,200.596,200.597   S453.52,366.759,453.52,256.149c0-52.291-20.119-99.964-53.013-135.708l26.519-26.432   C468.238,138.186,490.847,195.426,490.847,256.149z M248.415,261.444c1.465,1.47,3.389,2.206,5.312,2.206   c1.916,0,3.831-0.729,5.294-2.188l85.893-85.611c18.78,21.488,30.176,49.586,30.176,80.299   c0,67.363-54.804,122.167-122.167,122.167c-67.363,0-122.167-54.804-122.167-122.167s54.804-122.167,122.167-122.167   c31.265,0,59.819,11.811,81.449,31.197l-85.94,85.658C245.498,253.761,245.49,258.51,248.415,261.444z M461.087,49.436l7.16-26.721   l19.562,19.561L461.087,49.436z" data-original="#000000" class="active-path" data-old_color="#000000" fill="#499306"/>
</g></g> </svg>
