<?xml version="1.0"?>
<svg xmlns="http://www.w3.org/2000/svg" height="512px" viewBox="-1 0 512.00244 512" width="512px" class=""><g><path d="m402.609375 299.621094c1.859375-1.859375 2.929687-4.4375 2.929687-7.066406 0-2.632813-1.070312-5.210938-2.929687-7.070313s-4.441406-2.929687-7.070313-2.929687c-2.628906 0-5.210937 1.070312-7.070312 2.929687s-2.929688 4.4375-2.929688 7.070313c0 2.628906 1.070313 5.207031 2.929688 7.066406 1.859375 1.863281 4.441406 2.933594 7.070312 2.933594 2.628907-.003907 5.210938-1.070313 7.070313-2.933594zm0 0" data-original="#000000" class="active-path" data-old_color="#000000" fill="#499306"/><path d="m506.074219 285.789062c-5.175781-7.550781-12.996094-12.585937-22.011719-14.175781-12.375-2.1875-24.511719 2.742188-32.039062 11.925781v-79.132812c0-18.351562-14.933594-33.28125-33.285157-33.28125-4.6875 0-9.148437.980469-13.199219 2.738281v-4.769531c0-18.351562-14.933593-33.28125-33.285156-33.28125-18.351562 0-33.28125 14.929688-33.28125 33.28125v4.769531c-4.050781-1.757812-8.515625-2.738281-13.203125-2.738281-18.351562 0-33.285156 14.929688-33.285156 33.28125v22.625c-4.046875-1.753906-8.511719-2.734375-13.199219-2.734375-9.058594 0-17.277344 3.640625-23.285156 9.53125-6.003906-5.890625-14.226562-9.53125-23.28125-9.53125-4.691406 0-9.152344.976563-13.203125 2.734375v-22.621094c0-18.355468-14.929687-33.285156-33.28125-33.285156-4.691406 0-9.152344.980469-13.203125 2.738281v-4.765625c0-18.355468-14.929688-33.285156-33.28125-33.285156-18.355469 0-33.285156 14.933594-33.285156 33.285156v4.765625c-4.050782-1.757812-8.511719-2.738281-13.203125-2.738281-18.351563 0-33.28125 14.933594-33.28125 33.285156v79.128906c-7.527344-9.183593-19.664063-14.109374-32.042969-11.925781-9.015625 1.589844-16.832031 6.625-22.007812 14.175781-5.175782 7.554688-7.050782 16.660157-5.28125 25.644532l12.191406 61.824218c4.792968 24.296876 16.59375 46.378907 34.125 63.863282l8.902344 8.875c8.597656 8.574218 13.332031 19.976562 13.332031 32.117187v23.875c0 5.523438 4.476562 10 10 10 5.523437 0 10-4.476562 10-10v-23.875c0-17.492187-6.820313-33.925781-19.207031-46.277343l-8.90625-8.878907c-14.707032-14.664062-24.605469-33.1875-28.625-53.566406l-12.1875-61.824219c-.726563-3.667968.039062-7.386718 2.152343-10.46875 2.113281-3.082031 5.304688-5.140625 8.984375-5.789062 7.136719-1.253906 14.070313 3.269531 15.796875 10.300781l6.296875 25.695313c.882813 3.601562 3.078125 6.488281 5.976563 8.265624.019531.015626.035156.027344.054687.039063l.195313.117187c.058593.035157.113281.074219.175781.109376l23.957031 14.640624c11.101563 6.78125 17.996094 19.078126 17.996094 32.082032 0 5.523437 4.476563 10 10 10s10-4.476563 10-10c0-19.921875-10.5625-38.753906-27.566406-49.148438l-14.335938-8.761718c.007813-.179688.023438-.359376.023438-.542969v-119.699219c0-7.324219 5.957031-13.28125 13.28125-13.28125 6.839843 0 12.480469 5.191406 13.203125 11.839844v89.589844c0 5.523437 4.476562 10 10 10 5.523437 0 10-4.476563 10-10v-123.460938c0-7.324219 5.957031-13.28125 13.285156-13.28125 7.324219 0 13.28125 5.957031 13.28125 13.28125v123.460938c0 5.523437 4.476562 10 10 10s10-4.476563 10-10v-89.589844c.722656-6.648438 6.363281-11.839844 13.203125-11.839844 7.324219 0 13.28125 5.957031 13.28125 13.28125l-.082031 88.148438c0 5.519531 4.476562 10 10 10 5.523437 0 10-4.480469 10-10l.082031-36.421876c.722656-6.648437 6.367187-11.839843 13.203125-11.839843 7.324219 0 13.28125 5.960937 13.28125 13.285156v100.546875c0 27.859375-10.863281 54.035156-30.589844 73.707031-12.386718 12.351563-19.207031 28.789063-19.207031 46.277344v23.878906c0 5.519531 4.476563 9.996094 10 9.996094 5.519531 0 10-4.476563 10-9.996094v-23.878906c0-12.136719 4.730469-23.542969 13.328125-32.113281 11.398438-11.367188 20.308594-24.558594 26.46875-38.914063 6.164062 14.355469 15.074219 27.546875 26.472656 38.914063 8.59375 8.570312 13.328125 19.976562 13.328125 32.113281v23.878906c0 5.519531 4.476563 9.996094 10 9.996094 5.523438 0 10-4.476563 10-9.996094v-23.878906c0-17.492187-6.820312-33.925781-19.207031-46.277344-19.726562-19.671875-30.59375-45.847656-30.59375-73.707031v-100.546875c0-7.324219 5.960938-13.285156 13.285156-13.285156 6.835938 0 12.480469 5.195312 13.199219 11.84375l.082031 36.417969c0 5.519531 4.480469 10 10 10 5.523438 0 10-4.480469 10-10l-.082031-88.148438c0-7.324219 5.960937-13.28125 13.285156-13.28125 6.835938 0 12.480469 5.191406 13.203125 11.839844v89.589844c0 5.523437 4.476563 10 9.996094 10 5.523438 0 10-4.476563 10-10v-123.460938c0-7.324219 5.960938-13.28125 13.285156-13.28125 7.324219 0 13.285156 5.957031 13.285156 13.28125v86.902344c0 5.519531 4.476563 9.996094 10 9.996094 5.519532 0 10-4.476563 10-9.996094v-53.03125c.71875-6.648438 6.363282-11.839844 13.199219-11.839844 7.324219 0 13.285157 5.957031 13.285157 13.28125v119.699219c0 .183593.015624.359375.023437.542969l-14.339844 8.761718c-17 10.390625-27.5625 29.222656-27.5625 49.148438 0 5.519531 4.476563 10 10 10 5.523438 0 10-4.480469 10-10 0-13.007813 6.894531-25.300782 17.992188-32.082032l24.332031-14.867187c.054688-.035156.101562-.074219.15625-.109375 2.847656-1.785156 5-4.640625 5.871094-8.195312l6.300781-25.695313c1.722656-7.035156 8.664063-11.554687 15.792969-10.300781 3.683594.648437 6.871094 2.703125 8.984375 5.789062 2.113281 3.082032 2.878906 6.800782 2.15625 10.46875l-12.191407 61.820313c-4.019531 20.378906-13.917968 38.902343-28.625 53.570312l-8.902343 8.878907c-12.386719 12.351562-19.207031 28.785156-19.207031 46.277343v23.875c0 5.519531 4.476562 10 10 10 5.523437 0 10-4.480469 10-10v-23.875c0-12.140625 4.734374-23.546875 13.328124-32.117187l8.902344-8.878906c17.535156-17.484376 29.335938-39.566407 34.125-63.859376l12.191406-61.824218c1.773438-8.984375-.101562-18.089844-5.277343-25.644532zm0 0" data-original="#000000" class="active-path" data-old_color="#000000" fill="#499306"/><path d="m207.984375 136.929688c21 19.9375 41.71875 33.402343 42.589844 33.964843 1.652343 1.066407 3.539062 1.601563 5.429687 1.601563 1.886719 0 3.773438-.53125 5.425782-1.601563.875-.5625 21.589843-14.027343 42.589843-33.964843 29.363281-27.875 44.25-53.933594 44.25-77.457032 0-32.792968-25.863281-59.472656-57.648437-59.472656-12.515625 0-24.699219 4.265625-34.617188 11.925781-9.917968-7.660156-22.101562-11.925781-34.617187-11.925781-31.789063 0-57.652344 26.679688-57.652344 59.472656 0 23.523438 14.886719 49.582032 44.25 77.457032zm13.402344-116.929688c10.378906 0 20.046875 4.335938 27.226562 12.214844 1.894531 2.078125 4.578125 3.261718 7.390625 3.261718s5.496094-1.183593 7.390625-3.261718c7.175781-7.878906 16.847657-12.214844 27.226563-12.214844 20.761718 0 37.648437 17.707031 37.648437 39.472656 0 33.621094-47.960937 74.015625-72.269531 90.96875-24.3125-16.929687-72.265625-57.285156-72.265625-90.96875 0-21.765625 16.890625-39.472656 37.652344-39.472656zm0 0" data-original="#000000" class="active-path" data-old_color="#000000" fill="#499306"/><path d="m447.996094 50.429688c5.523437 0 10-4.476563 10-10v-12.429688c0-5.519531-4.476563-10-10-10-5.523438 0-10 4.480469-10 10v12.429688c0 5.523437 4.476562 10 10 10zm0 0" data-original="#000000" class="active-path" data-old_color="#000000" fill="#499306"/><path d="m447.996094 110c5.523437 0 10-4.480469 10-10v-12.429688c0-5.523437-4.476563-10-10-10-5.523438 0-10 4.476563-10 10v12.429688c0 5.519531 4.476562 10 10 10zm0 0" data-original="#000000" class="active-path" data-old_color="#000000" fill="#499306"/><path d="m471.566406 74h12.429688c5.523437 0 10-4.480469 10-10 0-5.523438-4.476563-10-10-10h-12.429688c-5.523437 0-10 4.476562-10 10 0 5.519531 4.476563 10 10 10zm0 0" data-original="#000000" class="active-path" data-old_color="#000000" fill="#499306"/><path d="m411.996094 74h12.429687c5.523438 0 10-4.480469 10-10 0-5.523438-4.476562-10-10-10h-12.429687c-5.519532 0-9.996094 4.476562-9.996094 10 0 5.519531 4.476562 10 9.996094 10zm0 0" data-original="#000000" class="active-path" data-old_color="#000000" fill="#499306"/><path d="m63.277344 100.761719c5.523437 0 10-4.476563 10-10v-12.429688c0-5.523437-4.476563-10-10-10-5.523438 0-10 4.476563-10 10v12.429688c0 5.523437 4.476562 10 10 10zm0 0" data-original="#000000" class="active-path" data-old_color="#000000" fill="#499306"/><path d="m63.277344 160.328125c5.523437 0 10-4.476563 10-9.996094v-12.429687c0-5.523438-4.476563-10-10-10-5.523438 0-10 4.476562-10 10v12.429687c0 5.519531 4.476562 9.996094 10 9.996094zm0 0" data-original="#000000" class="active-path" data-old_color="#000000" fill="#499306"/><path d="m86.847656 124.332031h12.429688c5.523437 0 10-4.480469 10-10 0-5.523437-4.476563-10-10-10h-12.429688c-5.523437 0-10 4.476563-10 10 0 5.519531 4.476563 10 10 10zm0 0" data-original="#000000" class="active-path" data-old_color="#000000" fill="#499306"/><path d="m27.28125 124.332031h12.429688c5.519531 0 9.996093-4.480469 9.996093-10 0-5.523437-4.476562-10-9.996093-10h-12.429688c-5.523438 0-10 4.476563-10 10 0 5.519531 4.476562 10 10 10zm0 0" data-original="#000000" class="active-path" data-old_color="#000000" fill="#499306"/></g> </svg>
