<?xml version="1.0"?>
<svg xmlns="http://www.w3.org/2000/svg" height="512px" viewBox="0 0 502.00121 502" width="512px" class=""><g><path d="m220.070312 386h-30.070312v-15.386719c3-2.554687 6.269531-5.367187 9.261719-8.4375 15.945312-16.339843 24.832031-38.292969 24.738281-61.125v-70.050781h11.355469c4.425781-.015625 8.003906-3.609375 8-8.035156-.035157-33.640625-27.289063-60.910156-60.929688-60.964844h-54.488281c-7.179688.011719-14.179688 2.238281-20.046875 6.375-32.925781 12.824219-54.683594 44.453125-54.890625 79.785156v52.890625c.074219 22.886719 9.117188 44.832031 25.1875 61.125 3.8125 4.085938 8.113281 7.679688 12.8125 10.699219v13.125h-30.078125c-33.59375 0-60.921875 27.625-60.921875 61.21875v46.78125c0 4.417969 3.582031 8 8 8h264.988281c4.421875 0 8.007813-3.578125 8.011719-8v-46.78125c0-33.59375-27.339844-61.21875-60.929688-61.21875zm-92.132812-208h54.488281c21.734375.046875 40.335938 15.613281 44.21875 37h-98.707031c-10.21875 0-18.5-8.28125-18.5-18.5 0-10.214844 8.28125-18.5 18.5-18.5zm-34.4375 17.609375c-.007812.316406-.023438.636719-.023438.957031.011719 12.910156 7.234376 24.738282 18.71875 30.640625-16.019531 15.953125-33.324218 19.136719-42.800781 19.527344.46875-19.679687 9.222657-38.242187 24.105469-51.125zm-24.5 105.441406v-38.332031c14-.449219 39.777344-5.71875 61.273438-31.71875h77.726562v70.050781c.0625 18.667969-7.214844 36.613281-20.265625 49.960938-12.792969 13.429687-30.535156 21.03125-49.082031 21.03125-18.550782 0-36.289063-7.601563-49.085938-21.03125-13.132812-13.316407-20.515625-31.253907-20.566406-49.960938zm69.949219 86.992188c12.109375-.003907 24.066406-2.648438 35.050781-7.742188v9.550781l-34.398438 21.402344-32.601562-21.285156v-8.292969c10.125 4.210938 20.984375 6.378907 31.949219 6.367188zm-122.949219 59.175781c0-24.769531 20.152344-45.21875 44.921875-45.21875h35.605469l34.472656 23.074219v60.925781h-115zm249 38.78125h-118v-60.8125l37.160156-23.1875h35.910156c24.769532 0 44.929688 20.449219 44.929688 45.21875zm0 0" data-original="#000000" class="active-path" data-old_color="##49930" fill="#499306"/><path d="m119.007812 277.960938c-4.417968 0-8 3.582031-8 8 .023438 1.882812-.964843 3.632812-2.589843 4.582031-1.628907.949219-3.640625.949219-5.265625 0s-2.617188-2.699219-2.589844-4.582031c0-4.417969-3.582031-8-8-8s-8 3.582031-8 8c-.054688 7.617187 3.980469 14.675781 10.570312 18.5 6.585938 3.824218 14.71875 3.824218 21.304688 0 6.589844-3.824219 10.621094-10.882813 10.570312-18.5 0-4.417969-3.582031-8-8-8zm0 0" data-original="#000000" class="active-path" data-old_color="##49930" fill="#499306"/><path d="m171.898438 307.183594c11.71875-.015625 21.210937-9.507813 21.222656-21.222656 0-4.417969-3.578125-8-8-8-4.417969 0-8 3.582031-8 8 0 2.882812-2.335938 5.222656-5.222656 5.222656-2.882813 0-5.222657-2.339844-5.222657-5.222656 0-4.417969-3.582031-8-8-8s-8 3.582031-8 8c.015625 11.714843 9.507813 21.207031 21.222657 21.222656zm0 0" data-original="#000000" class="active-path" data-old_color="##49930" fill="#499306"/><path d="m501.371094 50.792969c-1.261719-2.941407-4.171875-4.835938-7.371094-4.792969h-187v-2.117188c9.453125-2.710937 15.90625-11.429687 15.738281-21.265624 0-12.46875-10.414062-22.617188-23.363281-22.617188-12.953125 0-23.675781 10.148438-23.675781 22.617188.046875 9.625 6.191406 18.164062 15.300781 21.265624v285.746094c0 4.417969 3.582031 8 8 8s8-3.582031 8-8v-139.628906h187c3.242188-.085938 6.128906-2.074219 7.367188-5.070312 1.238281-3 .597656-6.445313-1.636719-8.792969l-56.847657-58.378907 56.847657-58.296874c2.246093-2.292969 2.894531-5.714844 1.640625-8.667969zm-201.871094-34.792969c4.128906 0 7.488281 2.96875 7.488281 6.617188 0 3.652343-3.359375 6.621093-7.488281 6.621093s-7.488281-2.96875-7.488281-6.621093c0-3.648438 3.359375-6.617188 7.488281-6.617188zm126.484375 96.230469c-3.023437 3.160156-3.023437 8.140625 0 11.300781l49.046875 50.46875h-168.03125v-112h168.03125zm0 0" data-original="#000000" class="active-path" data-old_color="##49930" fill="#499306"/></g> </svg>
